<?xml version="1.0" encoding="utf-8"?>
<!-- Generator: Adobe Illustrator 17.1.0, SVG Export Plug-In . SVG Version: 6.00 Build 0)  -->
<!DOCTYPE svg PUBLIC "-//W3C//DTD SVG 1.1//EN" "http://www.w3.org/Graphics/SVG/1.1/DTD/svg11.dtd">
<svg version="1.1" id="Layer_1" xmlns="http://www.w3.org/2000/svg" xmlns:xlink="http://www.w3.org/1999/xlink" x="0px" y="0px"
	 viewBox="0 0 95.1 71.7" enable-background="new 0 0 95.1 71.7" xml:space="preserve">
<g>
	<g>
		<path fill="#FFFFFF" d="M33.5,71.7C15,71.7,0,56.7,0,38.2S15,4.7,33.5,4.7C52,4.7,67,19.8,67,38.2S52,71.7,33.5,71.7z M33.5,7.7
			C16.7,7.7,3,21.4,3,38.2s13.7,30.5,30.5,30.5C50.3,68.7,64,55.1,64,38.2S50.3,7.7,33.5,7.7z"/>
	</g>
</g>
<g>
	<path fill="#FFFFFF" d="M33.9,53.1L16.5,34.5c-0.6-0.6-0.5-1.6,0.1-2.1c0.6-0.6,1.6-0.5,2.1,0.1l14.5,15.5
		C37.5,39.9,56.5,9.1,93.3,0c0.8-0.2,1.6,0.3,1.8,1.1C95.3,1.9,94.8,2.8,94,3C53.1,13,35,50.8,34.9,51.1L33.9,53.1z"/>
</g>
</svg>
