<?xml version="1.0" encoding="utf-8"?>
<!-- Generator: Adobe Illustrator 17.1.0, SVG Export Plug-In . SVG Version: 6.00 Build 0)  -->
<!DOCTYPE svg PUBLIC "-//W3C//DTD SVG 1.1//EN" "http://www.w3.org/Graphics/SVG/1.1/DTD/svg11.dtd">
<svg version="1.1" id="Layer_1" xmlns="http://www.w3.org/2000/svg" xmlns:xlink="http://www.w3.org/1999/xlink" x="0px" y="0px"
	 viewBox="0 0 26.2 26.2" enable-background="new 0 0 26.2 26.2" xml:space="preserve">
<path fill="#FFFFFF" d="M13.1,0C5.9,0,0,5.9,0,13.1c0,7.2,5.9,13.1,13.1,13.1c7.2,0,13.1-5.9,13.1-13.1C26.2,5.9,20.3,0,13.1,0z
	 M18.3,10.4c0,0.1,0,0.2,0,0.3c0,3.6-2.7,7.6-7.6,7.6c-1.5,0-2.9-0.4-4.1-1.2c0.2,0,0.4,0,0.6,0c1.3,0,2.4-0.4,3.3-1.1
	c-1.2,0-2.2-0.8-2.5-1.9c0.2,0,0.3,0,0.5,0c0.2,0,0.5,0,0.7-0.1c-1.2-0.2-2.2-1.3-2.2-2.6c0,0,0,0,0,0c0.4,0.2,0.8,0.3,1.2,0.3
	c-0.7-0.5-1.2-1.3-1.2-2.2c0-0.5,0.1-1,0.4-1.4c1.3,1.6,3.3,2.7,5.5,2.8c0-0.2-0.1-0.4-0.1-0.6c0-1.5,1.2-2.7,2.7-2.7
	c0.8,0,1.5,0.3,2,0.8c0.6-0.1,1.2-0.3,1.7-0.7c-0.2,0.6-0.6,1.2-1.2,1.5c0.5-0.1,1.1-0.2,1.5-0.4C19.3,9.6,18.8,10,18.3,10.4z"/>
</svg>
