<?xml version="1.0" encoding="utf-8"?>
<!-- Generator: Adobe Illustrator 17.1.0, SVG Export Plug-In . SVG Version: 6.00 Build 0)  -->
<!DOCTYPE svg PUBLIC "-//W3C//DTD SVG 1.1//EN" "http://www.w3.org/Graphics/SVG/1.1/DTD/svg11.dtd">
<svg version="1.1" id="Layer_1" xmlns="http://www.w3.org/2000/svg" xmlns:xlink="http://www.w3.org/1999/xlink" x="0px" y="0px"
	 viewBox="0 0 272 46" enable-background="new 0 0 272 46" xml:space="preserve">
<g>
	<g>
		
			<radialGradient id="SVGID_1_" cx="82.2334" cy="114.4357" r="19.9956" fx="78.6152" fy="114.3379" gradientTransform="matrix(2 0 0 -2 76 239.87)" gradientUnits="userSpaceOnUse">
			<stop  offset="0" style="stop-color:#ED1C24"/>
			<stop  offset="0.3805" style="stop-color:#E91E24"/>
			<stop  offset="0.5175" style="stop-color:#DE2225"/>
			<stop  offset="0.6153" style="stop-color:#CF2725"/>
			<stop  offset="0.6943" style="stop-color:#BB2C26"/>
			<stop  offset="0.762" style="stop-color:#A32F26"/>
			<stop  offset="0.822" style="stop-color:#852F25"/>
			<stop  offset="0.8762" style="stop-color:#662C22"/>
			<stop  offset="0.926" style="stop-color:#46241E"/>
			<stop  offset="0.9704" style="stop-color:#241613"/>
			<stop  offset="1" style="stop-color:#000000"/>
		</radialGradient>
		<circle fill="url(#SVGID_1_)" cx="249.2" cy="23" r="22.9"/>
		<g>
			<path fill="#FFFFFF" d="M262.1,23l3.7-5.2l0.1-0.3v-0.9h-3.4l-2.5,3.7l-2.5-3.7h-13.9c0,0-2.1,0-4.7,0h-6.1v12.8h3.5v-3.4h2.5
				c1.5,0,2.8-0.4,3.7-1.5c0.7-0.9,1.2-2.1,1.2-3.2c0-0.4-0.1-0.9-0.1-1.3h3.7v9.6h3.5V20h5.2l1.8,3.1l-3.7,5.3l-0.1,0.3v0.9h3.5
				l2.7-3.8l2.7,3.8h2.8h0.7v-0.9L262.1,23z M236.2,20h2.5c1,0,1.3,0.7,1.3,1.3c0,0.3-0.1,0.7-0.3,0.9c-0.3,0.3-0.6,0.4-1,0.4h-2.5
				V20z"/>
		</g>
	</g>
	<path fill="#FFFFFF" d="M1.9,43.7V2.3H32v8.4H11v9.7h19.6v8.3H11v14.8H1.9V43.7z"/>
	<path fill="#FFFFFF" d="M41,43.7V2.3h9.2v41.4H41z"/>
	<path fill="#FFFFFF" d="M89,29.2l-0.6-13V2.3h9.3v41.4h-8L69.2,17.2l0.3,13.6v12.8h-9.3V2.3h8L89,29.2z"/>
	<path fill="#D1D3D4" d="M132.3,12.4c-2.4-2.4-6.4-3.5-9.6-3.5c-4.1,0-7.4,1.8-7.4,4.6c0,3.8,3.5,4.4,8.9,5
		c8.1,0.7,15.9,3.8,15.9,13.4c0,9.2-8.6,13.3-17.4,13.3c-7.1,0-14.6-2.7-18-8.6l5.5-5.8c3.2,4.1,8.4,5.9,12.7,5.9
		c4.9,0,8.3-1.9,8.3-4.9c0-3.5-2.7-5-8.3-5.6c-8.7-0.9-16.5-3-16.4-12.7c0-8.3,7.8-12.6,16.4-12.6c6.4,0,11.2,1.5,15.4,6.4
		L132.3,12.4z"/>
	<path fill="#D1D3D4" d="M178.2,43.7h-31.5c0-13.7,0-27.6,0-41.4h30.7v8.4h-21.6v8h20.2v8.1h-20.4v8.3h22.4V43.7z"/>
	<path fill="#D1D3D4" d="M221.3,38.7c-4.3,4.1-9.7,6.1-15.9,6.1c-15.8,0-22-10.2-22.2-21.4c0-10.6,6.9-21.9,22.2-21.9
		c5.6,0,10.9,2.2,15.2,6.4l-5.8,5.8c-2.5-2.4-6.1-3.4-9.5-3.4c-9.5,0-13,7.2-13,13.3s3.2,12.8,13,12.8c3.2,0,7.7-1.5,10.2-4
		L221.3,38.7z"/>
</g>
</svg>
