<?xml version="1.0" encoding="utf-8"?>
<!-- Generator: Adobe Illustrator 17.1.0, SVG Export Plug-In . SVG Version: 6.00 Build 0)  -->
<!DOCTYPE svg PUBLIC "-//W3C//DTD SVG 1.1//EN" "http://www.w3.org/Graphics/SVG/1.1/DTD/svg11.dtd">
<svg version="1.1" id="Layer_1" xmlns="http://www.w3.org/2000/svg" xmlns:xlink="http://www.w3.org/1999/xlink" x="0px" y="0px"
	 viewBox="0 0 39 38.9" enable-background="new 0 0 39 38.9" xml:space="preserve">
<g>
	<path fill="#FFFFFF" d="M19.5,38.9C8.7,38.9,0,30.2,0,19.4S8.7-0.1,19.5-0.1S39,8.7,39,19.4S30.3,38.9,19.5,38.9z M19.5,1.9
		C9.9,1.9,2,9.8,2,19.4s7.9,17.5,17.5,17.5S37,29.1,37,19.4S29.1,1.9,19.5,1.9z"/>
</g>
<g>
	<path fill="#FFFFFF" d="M16.8,29.5c-0.3,0-0.5-0.1-0.7-0.3c-0.4-0.4-0.4-1,0-1.4l8.2-8.4L16,11c-0.4-0.4-0.4-1,0-1.4
		c0.4-0.4,1-0.4,1.4,0l9.5,9.8l-9.5,9.8C17.3,29.4,17,29.5,16.8,29.5z"/>
</g>
</svg>
