<?xml version="1.0" encoding="utf-8"?>
<!-- Generator: Adobe Illustrator 17.1.0, SVG Export Plug-In . SVG Version: 6.00 Build 0)  -->
<!DOCTYPE svg PUBLIC "-//W3C//DTD SVG 1.1//EN" "http://www.w3.org/Graphics/SVG/1.1/DTD/svg11.dtd">
<svg version="1.1" id="Layer_1" xmlns="http://www.w3.org/2000/svg" xmlns:xlink="http://www.w3.org/1999/xlink" x="0px" y="0px"
	 viewBox="0 0 83 83" enable-background="new 0 0 83 83" xml:space="preserve">
<g>
	<path fill="#D1252B" d="M41.5,83C18.6,83,0,64.3,0,41.5S18.6,0,41.5,0S83,18.6,83,41.5S64.3,83,41.5,83z M41.5,3
		C20.3,3,3,20.3,3,41.5C3,62.7,20.3,80,41.5,80C62.7,80,80,62.7,80,41.5C80,20.3,62.7,3,41.5,3z"/>
</g>
<circle fill="#D1252B" cx="41.5" cy="41.5" r="40"/>
<polygon fill="#8D1B20" points="16.5,49.5 37.1,38.8 66.5,49 46.3,60.5 "/>
<polygon fill="#AE2227" points="16.5,41.4 37.1,30.7 66.5,40.8 46.3,52.4 "/>
<polygon fill="#FFFFFF" points="16.5,33.2 37.1,22.5 66.5,32.6 46.3,44.1 "/>
</svg>
