<?xml version="1.0" encoding="utf-8"?>
<!-- Generator: Adobe Illustrator 17.1.0, SVG Export Plug-In . SVG Version: 6.00 Build 0)  -->
<!DOCTYPE svg PUBLIC "-//W3C//DTD SVG 1.1//EN" "http://www.w3.org/Graphics/SVG/1.1/DTD/svg11.dtd">
<svg version="1.1" id="Layer_1" xmlns="http://www.w3.org/2000/svg" xmlns:xlink="http://www.w3.org/1999/xlink" x="0px" y="0px"
	 viewBox="0 0 100 100" enable-background="new 0 0 100 100" xml:space="preserve">
<circle fill="#FFFFFF" cx="50" cy="50" r="50"/>
<circle fill="#D2232A" cx="50" cy="38.5" r="14.2"/>
<path fill="#D2232A" d="M58.7,55.3c0,0,0.6-5.3,4.1-10.8l-6.6-0.4H37c0,0,4.4,7.5,4.4,11.2H58.7z"/>
<path fill="#D2232A" d="M58.7,57c0,1.7-1.3,3-3,3H44.3c-1.6,0-3-1.3-3-3v-3.3c0-1.7,1.3-3,3-3h11.4c1.6,0,3,1.3,3,3V57z"/>
<path fill="#D2232A" d="M58.2,62.8c0,0.7-0.6,1.2-1.2,1.2H43.1c-0.7,0-1.2-0.6-1.2-1.2l0,0c0-0.7,0.6-1.2,1.2-1.2H57
	C57.6,61.5,58.2,62.1,58.2,62.8L58.2,62.8z"/>
<path fill="#D2232A" d="M58.2,66.8c0,0.7-0.6,1.2-1.2,1.2H43.1c-0.7,0-1.2-0.6-1.2-1.2l0,0c0-0.7,0.6-1.2,1.2-1.2H57
	C57.6,65.5,58.2,66.1,58.2,66.8L58.2,66.8z"/>
<path fill="#D2232A" d="M55.1,70.6c0,0.7-0.4,1.2-0.8,1.2h-8.9c-0.4,0-0.8-0.6-0.8-1.2l0,0c0-0.7,0.4-1.2,0.8-1.2h8.9
	C54.8,69.3,55.1,69.9,55.1,70.6L55.1,70.6z"/>
<path fill="none" stroke="#FFFFFF" stroke-miterlimit="10" d="M48.4,57.8c0,0-5.2-12.1-1.7-13.2c0,0,0.7,2.1,1,1.4
	c0.3-0.7,0.8-2.8,1.3-1.4s0.5,3,0.8,2.2s0.5-3,0.8-2.2c0.3,0.8,0.4,3.3,0.9,2.3c0.5-0.9,0.5-3.3,0.9-1.7s2.8-1.5-1.1,12.6"/>
</svg>
