<?xml version="1.0" encoding="utf-8"?>
<!-- Generator: Adobe Illustrator 17.1.0, SVG Export Plug-In . SVG Version: 6.00 Build 0)  -->
<!DOCTYPE svg PUBLIC "-//W3C//DTD SVG 1.1//EN" "http://www.w3.org/Graphics/SVG/1.1/DTD/svg11.dtd">
<svg version="1.1" id="Layer_1" xmlns="http://www.w3.org/2000/svg" xmlns:xlink="http://www.w3.org/1999/xlink" x="0px" y="0px"
	 viewBox="0 0 59.7 59.5" enable-background="new 0 0 59.7 59.5" xml:space="preserve">
<g>
	<path fill="#FFFFFF" d="M30,59.5c-16.4,0-29.7-13.3-29.7-29.7S13.6,0,30,0s29.7,13.3,29.7,29.7S46.4,59.5,30,59.5z M30,2
		C14.7,2,2.3,14.4,2.3,29.7S14.7,57.5,30,57.5S57.7,45,57.7,29.7S45.3,2,30,2z"/>
</g>
<g>
	<path fill="#FFFFFF" d="M30,40.6L15.1,26.2c-0.4-0.4-0.4-1,0-1.4c0.4-0.4,1-0.4,1.4,0L30,37.8l13.5-13.1c0.4-0.4,1-0.4,1.4,0
		c0.4,0.4,0.4,1,0,1.4L30,40.6z"/>
</g>
</svg>
