<?xml version="1.0" encoding="utf-8"?>
<!-- Generator: Adobe Illustrator 17.1.0, SVG Export Plug-In . SVG Version: 6.00 Build 0)  -->
<!DOCTYPE svg PUBLIC "-//W3C//DTD SVG 1.1//EN" "http://www.w3.org/Graphics/SVG/1.1/DTD/svg11.dtd">
<svg version="1.1" id="Layer_1" xmlns="http://www.w3.org/2000/svg" xmlns:xlink="http://www.w3.org/1999/xlink" x="0px" y="0px"
	 viewBox="0 0 31.6 69" enable-background="new 0 0 31.6 69" xml:space="preserve">
<g>
	<g>
		<rect x="0.8" y="67.9" transform="matrix(0.9147 0.4041 -0.4041 0.9147 27.7507 5.304)" fill="#FFFFFF" width="1" height="1"/>
	</g>
	<g>
		<path fill="#FFFFFF" d="M2.8,66.3l-0.9-0.4l0.8-1.8l0.9,0.4L2.8,66.3z M4.3,62.8l-0.9-0.4l0.8-1.8L5.1,61L4.3,62.8z M5.9,59.2
			L5,58.8L5.8,57l0.9,0.4L5.9,59.2z M7.5,55.6l-0.9-0.4l0.8-1.8l0.9,0.4L7.5,55.6z M9.1,52l-0.9-0.4l0.8-1.8l0.9,0.4L9.1,52z
			 M10.6,48.5l-0.9-0.4l0.8-1.8l0.9,0.4L10.6,48.5z M12.2,44.9l-0.9-0.4l0.8-1.8l0.9,0.4L12.2,44.9z M13.8,41.3l-0.9-0.4l0.8-1.8
			l0.9,0.4L13.8,41.3z M15.4,37.7l-0.9-0.4l0.8-1.8l0.9,0.4L15.4,37.7z M17,34.2L16,33.8l0.8-1.8l0.9,0.4L17,34.2z M18.5,30.6
			l-0.9-0.4l0.8-1.8l0.9,0.4L18.5,30.6z M20.1,27l-0.9-0.4l0.8-1.8l0.9,0.4L20.1,27z M21.7,23.4L20.8,23l0.8-1.8l0.9,0.4L21.7,23.4z
			 M23.3,19.8l-0.9-0.4l0.8-1.8l0.9,0.4L23.3,19.8z M24.8,16.3l-0.9-0.4l0.8-1.8l0.9,0.4L24.8,16.3z M26.4,12.7l-0.9-0.4l0.8-1.8
			l0.9,0.4L26.4,12.7z M28,9.1l-0.9-0.4l0.8-1.8l0.9,0.4L28,9.1z M29.6,5.5l-0.9-0.4l0.8-1.8l0.9,0.4L29.6,5.5z"/>
	</g>
	<g>
		<rect x="30.4" y="0.8" transform="matrix(0.9145 0.4045 -0.4045 0.9145 3.1687 -12.3909)" fill="#FFFFFF" width="1" height="1"/>
	</g>
</g>
</svg>
