<?xml version="1.0" encoding="utf-8"?>
<!-- Generator: Adobe Illustrator 17.1.0, SVG Export Plug-In . SVG Version: 6.00 Build 0)  -->
<!DOCTYPE svg PUBLIC "-//W3C//DTD SVG 1.1//EN" "http://www.w3.org/Graphics/SVG/1.1/DTD/svg11.dtd">
<svg version="1.1" id="Layer_1" xmlns="http://www.w3.org/2000/svg" xmlns:xlink="http://www.w3.org/1999/xlink" x="0px" y="0px"
	 viewBox="0 0 73.9 36.4" enable-background="new 0 0 73.9 36.4" xml:space="preserve">
<g>
	<path fill="#FFFFFF" d="M73.5,36.4l-1.8-0.9l0.4-0.9l1.8,0.9L73.5,36.4z M69.9,34.7l-1.8-0.9l0.4-0.9l1.8,0.9L69.9,34.7z
		 M66.3,32.9l-1.8-0.9l0.4-0.9l1.8,0.9L66.3,32.9z M62.7,31.2l-1.8-0.9l0.4-0.9l1.8,0.9L62.7,31.2z M59.1,29.4l-1.8-0.9l0.4-0.9
		l1.8,0.9L59.1,29.4z M55.5,27.7l-1.8-0.9l0.4-0.9l1.8,0.9L55.5,27.7z M51.9,26l-1.8-0.9l0.4-0.9l1.8,0.9L51.9,26z M48.2,24.2
		l-1.8-0.9l0.4-0.9l1.8,0.9L48.2,24.2z M44.6,22.5l-1.8-0.9l0.4-0.9l1.8,0.9L44.6,22.5z M41,20.7l-1.8-0.9l0.4-0.9l1.8,0.9L41,20.7z
		 M37.4,19l-1.8-0.9l0.4-0.9l1.8,0.9L37.4,19z M33.8,17.3L32,16.4l0.4-0.9l1.8,0.9L33.8,17.3z M30.2,15.5l-1.8-0.9l0.4-0.9l1.8,0.9
		L30.2,15.5z M26.6,13.8l-1.8-0.9l0.4-0.9l1.8,0.9L26.6,13.8z M23,12l-1.8-0.9l0.4-0.9l1.8,0.9L23,12z M19.4,10.3l-1.8-0.9l0.4-0.9
		l1.8,0.9L19.4,10.3z M15.8,8.6L14,7.7l0.4-0.9l1.8,0.9L15.8,8.6z M12.2,6.8l-1.8-0.9L10.9,5l1.8,0.9L12.2,6.8z M8.6,5.1L6.8,4.2
		l0.4-0.9l1.8,0.9L8.6,5.1z M5,3.3L3.2,2.5l0.4-0.9l1.8,0.9L5,3.3z M1.4,1.6L0,0.9L0.4,0l1.4,0.7L1.4,1.6z"/>
</g>
</svg>
