<?xml version="1.0" encoding="utf-8"?>
<!-- Generator: Adobe Illustrator 17.1.0, SVG Export Plug-In . SVG Version: 6.00 Build 0)  -->
<!DOCTYPE svg PUBLIC "-//W3C//DTD SVG 1.1//EN" "http://www.w3.org/Graphics/SVG/1.1/DTD/svg11.dtd">
<svg version="1.1" id="Layer_1" xmlns="http://www.w3.org/2000/svg" xmlns:xlink="http://www.w3.org/1999/xlink" x="0px" y="0px"
	 viewBox="0 0 281.9 45.7" enable-background="new 0 0 281.9 45.7" xml:space="preserve">
<g>
	<path fill="#FFFFFF" d="M0.5,0.9h35.2v10.7h-23V19h20.8v10.1H12.7v15.7H0.5V0.9z"/>
	<path fill="#FFFFFF" d="M41.5,0.9h12.3v44H41.5V0.9z"/>
	<path fill="#FFFFFF" d="M61.8,0.9h11.4l18.1,23.2V0.9h12.1v44H92.7L73.9,20.7v24.1H61.8V0.9z"/>
	<path fill="#CECECD" d="M107.8,38.3l6.8-8.1c4.3,3.5,9.2,5.3,14.3,5.3c3.3,0,5-1.1,5-3v-0.1c0-1.8-1.4-2.8-7.4-4.2
		c-9.4-2.1-16.6-4.8-16.6-13.8v-0.1c0-8.2,6.5-14.1,17-14.1c7.5,0,13.3,2,18.1,5.8l-6.1,8.6c-4-2.8-8.4-4.3-12.3-4.3
		c-3,0-4.4,1.3-4.4,2.8v0.1c0,2,1.5,2.9,7.6,4.3c10.1,2.2,16.4,5.5,16.4,13.7v0.1c0,9-7.1,14.3-17.8,14.3
		C120.6,45.6,113.2,43.2,107.8,38.3z"/>
	<path fill="#CECECD" d="M152.1,0.9h35.4v10.4h-23.3v6.7h21.1v9.6h-21.1v7h23.6v10.4h-35.7V0.9z"/>
	<path fill="#CECECD" d="M192.2,23v-0.1C192.2,10.1,202,0,215.4,0c9,0,14.8,3.8,18.7,9.2l-9.2,7.1c-2.5-3.1-5.4-5.2-9.6-5.2
		c-6.2,0-10.5,5.2-10.5,11.6v0.1c0,6.6,4.3,11.7,10.5,11.7c4.6,0,7.3-2.1,9.9-5.3l9.2,6.5c-4.1,5.7-9.7,9.9-19.5,9.9
		C202.3,45.7,192.2,36.1,192.2,23z"/>
</g>
<circle fill="#D2232A" cx="259.9" cy="22.8" r="22"/>
<path fill="#FFFFFF" d="M272.8,23.1l4.1-6.1H273l-2.2,3.5l-2.2-3.5h-23.5v12.5h3.5v-3.6h1.7c3.1,0,5.4-1.6,5.4-4.5v0
	c0-0.5-0.1-0.9-0.2-1.4h2.9v9.5h3.5V20h4.8l2.1,3.1l-4.3,6.4h3.9l2.4-3.8l2.4,3.8h4L272.8,23.1z M252.1,21.6c0,1-0.8,1.6-2,1.6h-1.6
	v-3.3h1.6C251.4,19.9,252.1,20.5,252.1,21.6L252.1,21.6z"/>
</svg>
