<?xml version="1.0" encoding="utf-8"?>
<!-- Generator: Adobe Illustrator 17.1.0, SVG Export Plug-In . SVG Version: 6.00 Build 0)  -->
<!DOCTYPE svg PUBLIC "-//W3C//DTD SVG 1.1//EN" "http://www.w3.org/Graphics/SVG/1.1/DTD/svg11.dtd">
<svg version="1.1" id="Layer_1" xmlns="http://www.w3.org/2000/svg" xmlns:xlink="http://www.w3.org/1999/xlink" x="0px" y="0px"
	 viewBox="0 0 283.5 283.5" enable-background="new 0 0 283.5 283.5" xml:space="preserve">
<g>
	<path fill="#0D344C" d="M141.7,0c78.5,0,141.7,63.2,141.7,141.7s-63.2,141.7-141.7,141.7S0,220.2,0,141.7S63.2,0,141.7,0z
		 M141.7,268.9c69.8,0,127.2-57.4,127.2-127.2S211.5,14.5,141.7,14.5S14.5,72,14.5,141.7S72,268.9,141.7,268.9z"/>
</g>
<g>
	<path fill="#0D344C" d="M161.4,68.3c2.2,0,3.6,0.7,5.1,2.2c2.9,2.9,2.9,7.3,0,10.2l-59.6,61.1l60.3,61.1c2.9,2.9,2.9,7.3,0,10.2
		c-2.9,2.9-7.3,2.9-10.2,0l-69-71.2l69-71.2C157.7,69,159.9,68.3,161.4,68.3z"/>
</g>
</svg>
