<?xml version="1.0" encoding="utf-8"?>
<!-- Generator: Adobe Illustrator 17.1.0, SVG Export Plug-In . SVG Version: 6.00 Build 0)  -->
<!DOCTYPE svg PUBLIC "-//W3C//DTD SVG 1.1//EN" "http://www.w3.org/Graphics/SVG/1.1/DTD/svg11.dtd">
<svg version="1.1" id="Layer_1" xmlns="http://www.w3.org/2000/svg" xmlns:xlink="http://www.w3.org/1999/xlink" x="0px" y="0px"
	 viewBox="0 0 335 335" enable-background="new 0 0 335 335" xml:space="preserve">
<radialGradient id="SVGID_1_" cx="167.5" cy="167.5018" r="167.5018" gradientUnits="userSpaceOnUse">
	<stop  offset="0" style="stop-color:#6DA4D8"/>
	<stop  offset="0.8587" style="stop-color:#4C6F93"/>
</radialGradient>
<circle fill="url(#SVGID_1_)" cx="167.5" cy="167.5" r="167.5"/>
<polygon fill="#0F344C" points="170.3,158.9 1.5,335.1 333.5,335.1 229.2,205.9 214.1,224.6 "/>
<polygon fill="#234C6B" points="170.3,158.9 219.1,252.9 209,287.5 241.8,271.2 290.9,335.1 1.5,335.1 "/>
<linearGradient id="SVGID_2_" gradientUnits="userSpaceOnUse" x1="118.3283" y1="287.5285" x2="118.3283" y2="158.9412">
	<stop  offset="2.961575e-02" style="stop-color:#2B5877"/>
	<stop  offset="0.7642" style="stop-color:#4C6F93"/>
</linearGradient>
<polygon fill="url(#SVGID_2_)" points="170.3,158.9 189.5,222.1 161.9,218.9 114.6,268.1 47.1,287.5 "/>
<line fill="none" stroke="#353C3F" stroke-width="3" stroke-linecap="round" stroke-miterlimit="10" x1="163.7" y1="165.1" x2="156.5" y2="78.2"/>
<path fill="#D2232A" stroke="#D2232A" stroke-linecap="round" stroke-linejoin="round" stroke-miterlimit="10" d="M156.5,85.7
	c0,0-15.1-4-27.4,8.9c-10.4,10.9-14,24.8-26.4,27c-1.1,0.2-1.1,1.8,0,2c9.2,1.8,24.8,2.4,34.9-9.6c15.1-17.9,21.7-1.9,21.7-1.9
	L156.5,85.7z"/>
<path fill="#FFFFFF" d="M161.9,130.4c0,0,1.8,6.8,10.5,5.9c4.6-0.5,6.1,0,6.1,0s0.7-7.7,5.9-7.7c5.2,0,3.5,6,2.6,7.7h-3
	c0,0,4.8,6.3,9.2,3.3c2.4-1.6,0.5-6.6-4.3-8.3c0,0,2.6-0.6,6.7,2.7c4.1,3.3,1.5,12-9.7,9.8c0,0-4.4,6-3.9,13.1
	c0.2,3.3-2.4,11.7,3.4,24.6c0,0-6.7-11.1-8.8-21.5l-6.2-1.1L173,171c0,0-13.8-19.4-4.3-18.3c5.1,0.6,5.8,0.5,5.8,0.5
	s-1.5-7.4,0.3-12.7C174.8,140.6,163.1,141.6,161.9,130.4z"/>
<linearGradient id="SVGID_3_" gradientUnits="userSpaceOnUse" x1="161.929" y1="290.7288" x2="161.929" y2="234.046">
	<stop  offset="2.961575e-02" style="stop-color:#2B5877"/>
	<stop  offset="0.7642" style="stop-color:#4C6F93"/>
</linearGradient>
<polygon fill="url(#SVGID_3_)" points="130.6,268.1 163.7,234 193.3,234 175.7,290.7 159.3,268.1 "/>
</svg>
