<?xml version="1.0" encoding="utf-8"?>
<!-- Generator: Adobe Illustrator 17.1.0, SVG Export Plug-In . SVG Version: 6.00 Build 0)  -->
<!DOCTYPE svg PUBLIC "-//W3C//DTD SVG 1.1//EN" "http://www.w3.org/Graphics/SVG/1.1/DTD/svg11.dtd">
<svg version="1.1" id="Layer_1" xmlns="http://www.w3.org/2000/svg" xmlns:xlink="http://www.w3.org/1999/xlink" x="0px" y="0px"
	 viewBox="0 0 83 83" enable-background="new 0 0 83 83" xml:space="preserve">
<g>
	<path fill="#D1252B" d="M41.5,83C18.6,83,0,64.3,0,41.5S18.6,0,41.5,0S83,18.6,83,41.5S64.3,83,41.5,83z M41.5,3
		C20.3,3,3,20.3,3,41.5C3,62.7,20.3,80,41.5,80C62.7,80,80,62.7,80,41.5C80,20.3,62.7,3,41.5,3z"/>
</g>
<circle fill="#D1252B" cx="41.5" cy="41.5" r="40"/>
<circle fill="#D1252B" cx="41.5" cy="41.6" r="40"/>
<g>
	<circle fill="#FFFFFF" cx="41.5" cy="32" r="14.2"/>
</g>
<g>
	<path fill="#FFFFFF" d="M50.2,48.8c0,0,0.6-5.3,4.1-10.8l-6.6-0.4H28.5c0,0,4.4,7.5,4.4,11.2H50.2z"/>
</g>
<g>
	<path fill="#FFFFFF" d="M50.2,50.5c0,1.7-1.3,3-3,3H35.8c-1.6,0-3-1.3-3-3v-3.3c0-1.7,1.3-3,3-3h11.4c1.6,0,3,1.3,3,3V50.5z"/>
</g>
<g>
	<path fill="#FFFFFF" d="M49.7,56.3c0,0.7-0.6,1.2-1.2,1.2H34.6c-0.7,0-1.2-0.6-1.2-1.2l0,0c0-0.7,0.6-1.2,1.2-1.2h13.8
		C49.1,55,49.7,55.6,49.7,56.3L49.7,56.3z"/>
</g>
<g>
	<path fill="#FFFFFF" d="M49.7,60.3c0,0.7-0.6,1.2-1.2,1.2H34.6c-0.7,0-1.2-0.6-1.2-1.2l0,0c0-0.7,0.6-1.2,1.2-1.2h13.8
		C49.1,59,49.7,59.6,49.7,60.3L49.7,60.3z"/>
</g>
<g>
	<path fill="#FFFFFF" d="M46.6,64.1c0,0.7-0.4,1.2-0.8,1.2H37c-0.4,0-0.8-0.6-0.8-1.2l0,0c0-0.7,0.4-1.3,0.8-1.3h8.9
		C46.3,62.9,46.6,63.4,46.6,64.1L46.6,64.1z"/>
</g>
<g>
	<path fill="#D1252B" d="M39.4,51.5c-0.4-1-4-9.7-2.6-12.8c0.3-0.6,0.7-0.9,1.2-1.1l0.5-0.2l0.2,0.5c0.1,0.3,0.2,0.6,0.3,0.8
		c0,0,0-0.1,0-0.1c0.3-0.8,0.5-1.5,1.1-1.5c0,0,0,0,0,0c0.5,0,0.8,0.6,0.8,0.8c0.1,0.2,0.2,0.5,0.2,0.7c0.2-0.8,0.3-1.2,0.7-1.2
		c0.2,0,0.5,0,0.7,0.5c0.1,0.3,0.2,0.8,0.3,1.3c0,0,0,0,0,0c0-0.2,0.1-0.3,0.1-0.5c0.1-0.7,0.2-1.1,0.7-1.1c0.5,0,0.6,0.5,0.7,0.9
		c0,0.1,0.1,0.2,0.2,0.3c0.9,0.6,1.8,1.2-1.4,12.6l-1-0.3c3-10.7,2.2-11.2,1.8-11.5c-0.1,0-0.1-0.1-0.2-0.2
		c-0.1,0.4-0.2,0.8-0.4,1.1c-0.2,0.4-0.5,0.5-0.7,0.5c-0.5-0.1-0.6-0.6-0.8-1.4c-0.1,0.3-0.1,0.6-0.2,0.8c-0.2,0.4-0.4,0.5-0.7,0.5
		c-0.5,0-0.5-0.5-0.7-1.2c-0.1-0.4-0.2-0.9-0.3-1.4c-0.1,0.2-0.1,0.3-0.2,0.5c-0.1,0.3-0.2,0.6-0.3,0.7c-0.2,0.4-0.6,0.4-0.7,0.4
		c-0.2,0-0.6,0-1.1-1.3c-0.1,0.1-0.1,0.2-0.2,0.3c-1.1,2.3,1.5,9.4,2.6,12L39.4,51.5z"/>
</g>
</svg>
