<?xml version="1.0" encoding="utf-8"?>
<!-- Generator: Adobe Illustrator 17.1.0, SVG Export Plug-In . SVG Version: 6.00 Build 0)  -->
<!DOCTYPE svg PUBLIC "-//W3C//DTD SVG 1.1//EN" "http://www.w3.org/Graphics/SVG/1.1/DTD/svg11.dtd">
<svg version="1.1" id="Layer_1" xmlns="http://www.w3.org/2000/svg" xmlns:xlink="http://www.w3.org/1999/xlink" x="0px" y="0px"
	 viewBox="0 0 83 83" enable-background="new 0 0 83 83" xml:space="preserve">
<g>
	<path fill="#D1252B" d="M41.5,83C18.6,83,0,64.3,0,41.5S18.6,0,41.5,0S83,18.6,83,41.5S64.3,83,41.5,83z M41.5,3
		C20.3,3,3,20.3,3,41.5C3,62.7,20.3,80,41.5,80C62.7,80,80,62.7,80,41.5C80,20.3,62.7,3,41.5,3z"/>
</g>
<circle fill="#D1252B" cx="41.5" cy="41.5" r="39.9"/>
<circle fill="none" stroke="#FFFFFF" stroke-width="3.5" stroke-miterlimit="10" cx="38.7" cy="35.7" r="17.2"/>
<line fill="none" stroke="#FFFFFF" stroke-width="5" stroke-linecap="round" stroke-miterlimit="10" x1="50.2" y1="49.7" x2="61.7" y2="62.3"/>
<path opacity="0.4" fill="#FFFFFF" d="M40.8,18.5L28.7,49.7l8.1,3.2l11.8-31.3C48.5,21.6,45.8,19,40.8,18.5z"/>
<polygon opacity="0.5" fill="#FFFFFF" points="41.2,52.7 51.6,24.3 53.3,26.6 43.7,52.2 "/>
</svg>
