<?xml version="1.0" encoding="utf-8"?>
<!-- Generator: Adobe Illustrator 17.1.0, SVG Export Plug-In . SVG Version: 6.00 Build 0)  -->
<!DOCTYPE svg PUBLIC "-//W3C//DTD SVG 1.1//EN" "http://www.w3.org/Graphics/SVG/1.1/DTD/svg11.dtd">
<svg version="1.1" id="Layer_1" xmlns="http://www.w3.org/2000/svg" xmlns:xlink="http://www.w3.org/1999/xlink" x="0px" y="0px"
	 viewBox="0 0 83 83" enable-background="new 0 0 83 83" xml:space="preserve">
<g>
	<path fill="#D1252B" d="M41.5,83C18.6,83,0,64.3,0,41.5S18.6,0,41.5,0S83,18.6,83,41.5S64.3,83,41.5,83z M41.5,3
		C20.3,3,3,20.3,3,41.5C3,62.7,20.3,80,41.5,80C62.7,80,80,62.7,80,41.5C80,20.3,62.7,3,41.5,3z"/>
</g>
<g>
	<defs>
		<circle id="SVGID_1_" cx="41.5" cy="41.5" r="41.5"/>
	</defs>
	<clipPath id="SVGID_2_">
		<use xlink:href="#SVGID_1_"  overflow="visible"/>
	</clipPath>
	<g clip-path="url(#SVGID_2_)">
		<circle fill="#D1252B" cx="41.5" cy="41.5" r="41.5"/>
	</g>
	<path clip-path="url(#SVGID_2_)" fill="#0F1C3B" d="M76.6,54.3c-1.7-4-8.4-6-5.1-15.7c3.3-9.7-1.9-15.4-1.9-15.4L68,23.7
		c-1.9-2.3-11.1-4-15.4,1.2c-1.5,1.8-1.9,5.1-1.9,8.8l0,0c0,0-0.1,7.7-0.9,8.7l1.6,0.4c0.6,3.8,1.2,6.7,1.2,6.7s6,0.2,8.2-1.2
		c0,0,0,0,0.1,0c0,0-0.1,0-0.1,0c0.9,3-1.2,4.5-1.2,4.5c-16.2,1.7-18.2,34.2-18.2,34.2c18.9,1.7,35.4-13.7,35.4-13.7
		C79.4,60.6,78.3,58.3,76.6,54.3z M61.8,47.6C61.9,47.6,61.9,47.6,61.8,47.6L61.8,47.6z M61.3,48c0.2-0.1,0.3-0.2,0.4-0.3
		C61.6,47.8,61.4,47.9,61.3,48z"/>
	<path clip-path="url(#SVGID_2_)" fill="#FDFEFF" d="M8,73.2c0,0,16.5,15.4,35.4,13.7c0,0-2.1-32.5-18.2-34.2c0,0-2-1.5-1.2-4.5
		c0,0,0,0-0.1,0c0,0,0,0,0.1,0c2.2,1.4,8.2,1.2,8.2,1.2s0.7-2.9,1.2-6.7l1.6-0.4c-0.8-1-0.9-8.7-0.9-8.7l0,0c0-3.7-0.4-7.1-1.9-8.8
		c-4.3-5.2-13.5-3.5-15.4-1.2l-1.6-0.5c0,0-5.2,5.7-1.9,15.4c3.3,9.7-3.4,11.7-5.1,15.7C6.5,58.3,5.4,60.6,8,73.2z M23.1,47.6
		C23,47.6,22.9,47.6,23.1,47.6L23.1,47.6z M23.1,47.7c0.1,0.1,0.2,0.1,0.4,0.3C23.4,47.9,23.3,47.8,23.1,47.7z"/>
</g>
</svg>
