<?xml version="1.0" encoding="utf-8"?>
<!-- Generator: Adobe Illustrator 17.1.0, SVG Export Plug-In . SVG Version: 6.00 Build 0)  -->
<!DOCTYPE svg PUBLIC "-//W3C//DTD SVG 1.1//EN" "http://www.w3.org/Graphics/SVG/1.1/DTD/svg11.dtd">
<svg version="1.1" id="Layer_1" xmlns="http://www.w3.org/2000/svg" xmlns:xlink="http://www.w3.org/1999/xlink" x="0px" y="0px"
	 viewBox="0 0 83 83" enable-background="new 0 0 83 83" xml:space="preserve">
<g>
	<path fill="#D1252B" d="M41.5,83C18.6,83,0,64.3,0,41.5S18.6,0,41.5,0S83,18.6,83,41.5S64.3,83,41.5,83z M41.5,3
		C20.3,3,3,20.3,3,41.5C3,62.7,20.3,80,41.5,80C62.7,80,80,62.7,80,41.5C80,20.3,62.7,3,41.5,3z"/>
</g>
<g>
	<g>
		<defs>
			<path id="SVGID_1_" d="M22.4,6.5C3,17-4.1,41.2,6.4,60.6C17,79.9,41.2,87,60.6,76.5C79.9,66,87,41.7,76.5,22.4
				C69.3,9.1,55.6,1.6,41.4,1.6C35,1.6,28.5,3.1,22.4,6.5"/>
		</defs>
		<clipPath id="SVGID_2_">
			<use xlink:href="#SVGID_1_"  overflow="visible"/>
		</clipPath>
		<ellipse clip-path="url(#SVGID_2_)" fill="#D1252B" cx="37.4" cy="41.5" rx="46.3" ry="51.5"/>
	</g>
	<g>
		<path fill="#FFFFFF" d="M28.4,55.9c-3.6,0.5-5.4,0.7-9.4,0.4c1.6-0.8,1.9-1,3.4-2.1C4,45.2-2.9,26.2,4.6,17.7
			c1.9-1.9,2-2.1,3.4-3.2c2.2-1.5,2.3-1.6,3.7-2.3C-0.6,19.6,11.4,40.1,28,46.4c0.8-2.3,0.9-2.4,1.6-4.6c1.3,2.7,2,4,3.8,6.5
			c1.5,2,2.3,3,3.9,4.4C35.6,53.7,32.6,55.2,28.4,55.9"/>
		<path fill-rule="evenodd" clip-rule="evenodd" fill="#FFFFFF" d="M60.7,70.2c-0.1,0-0.2,0-0.2,0.1c0,0.3,0.1,0.2,0.2,0.2
			C60.9,70.5,60.8,70.2,60.7,70.2"/>
		<path fill-rule="evenodd" clip-rule="evenodd" fill="#FFFFFF" d="M60.4,70.5c0.1,0-0.1,0.4-0.2,0.4c-0.1,0-0.1,0-0.1,0.2
			c0,0.2,0,0.4-0.1,0.4c0,0-0.1,0-0.1,0c-0.1-0.1-0.4,0.2-0.5,0.2c-0.1,0.1-0.2,0.3-0.2,0.3c0,0-0.2,0.2-0.3,0.1
			c0,0-0.2,0.1-0.3,0.2c0,0.1-0.1,0.2-0.2,0.1c0,0-0.1,0-0.1,0.1c-0.2,0.1-0.3,0.2-0.3,0.2c0,0,0,0.1-0.1,0
			c-0.2-0.2-0.2-0.1-0.3-0.1c-0.1,0-0.2-0.6-0.2-0.6c0-0.1,0-0.1,0.1-0.2c0.3-0.2,0.2-0.4,0.2-0.7c0,0,0-0.1,0-0.1
			c0-0.2,0.1-0.3,0.2-0.5c0.1-0.3,0-0.2,0.1-0.2c0.4-0.4,0.3,0,0.3,0l0.2,0.1c0.4,0,0.1,0.3,0.4,0.3h0.4c0.1,0,0.4-0.1,0.6-0.1
			C60,70.6,60.3,70.5,60.4,70.5"/>
		<path fill-rule="evenodd" clip-rule="evenodd" fill="#FFFFFF" d="M55.4,66.3c-0.1-0.2-0.2,0-0.3,0c-0.1,0-0.5,0.1-0.5,0.1
			c-0.3,0.3-0.1,0.2,0.3,0.3c0.5,0.1,0.3,0,0.3-0.1c0,0,0,0,0.1,0c0.6,0,0.3-0.1,0.3-0.2c-0.1-0.1-0.1,0-0.2,0v0l0,0c0,0,0,0,0,0
			L55.4,66.3z"/>
		<path fill-rule="evenodd" clip-rule="evenodd" fill="#FFFFFF" d="M57.9,70c0,0,0,0,0.2-0.1c0.1-0.1,0.1-0.2,0.1-0.3
			c0-0.1-0.1-0.1-0.2,0C58,69.7,57.8,69.9,57.9,70C57.9,70,57.9,70,57.9,70"/>
		<path fill-rule="evenodd" clip-rule="evenodd" fill="#FFFFFF" d="M60,69.2c0.1,0,0.2,0,0.1-0.1C60.1,69,59.9,69.1,60,69.2
			C59.9,69.2,59.9,69.3,60,69.2"/>
		<path fill-rule="evenodd" clip-rule="evenodd" fill="#FFFFFF" d="M60.9,69.7C60.9,69.7,60.9,69.7,60.9,69.7
			c0.1,0.1-0.2,0.5-0.2,0.5c0,0-0.1,0.1-0.1,0c0-0.1-0.1-0.4,0.1-0.4C60.7,69.7,60.8,69.6,60.9,69.7C60.8,69.7,60.8,69.7,60.9,69.7"
			/>
		<path fill-rule="evenodd" clip-rule="evenodd" fill="#FFFFFF" d="M69.6,57.4c0,0.2-0.1,0.3-0.2,0.4c-0.3,0.3-0.2,0.2-0.1,0.5
			c0,0-0.2,0.5-0.2,0.5c0,0.1,0.1,0.3,0,0.3c0,0-0.2,0.2-0.2,0.3c0.1,0.3,0.2,0,0.2,0.1c0,0-0.1,0.3-0.1,0.4c-0.1,0.2,0,0.1,0,0.3
			c0,0.4-0.4,0.7-0.4,0.7c-0.1,0.2-0.2,0.5-0.2,0.6c0,0.1-0.4,0.5-0.6,0.6c-0.1,0.1-0.1,0.1-0.1,0.2c0,0.1-0.1,0.3-0.2,0.5
			c-0.1,0.2-0.1,0.2-0.3,0.4C67,63.3,67,63.3,67,63.3l-0.2,0.3c-0.1,0.1-1,0.8-1.2,0.8c-0.2,0.1-0.6,0.9-0.9,1c0,0.1,0,0.6-0.1,0.5
			c0,0-0.1,0.1-0.3,0.2C64,66.3,64,66.4,64,66.4c-0.3,0.5-0.6,0.7-0.7,0.8c-0.1,0.2-0.2,0.5-0.3,0.5c0,0,0,0-0.1,0.1
			c-0.2,0.3-0.3,0.3-0.7,0.3c-0.1,0-0.7,0-0.7,0c-0.1,0-0.1,0.1-0.2,0.1c-0.3,0.3-0.4,0.3-0.7,0.5c0,0.2,0,0.2-0.5,0.2
			c-0.2,0-0.1,0.1-0.3,0.1c-0.1,0-0.1,0-0.2-0.1c0,0-0.1-0.2,0-0.3c-0.1,0.1-0.1,0.1-0.2,0.1c-0.1,0-0.2,0-0.2-0.1
			c0-0.1,0.2-0.2,0.3-0.3c0,0,0-0.2,0-0.2c0,0-0.2,0.1-0.3,0.2l0,0.1c0,0-0.2,0.1-0.3,0.1c-0.3,0-0.5,0.4-1,0.4c0,0-0.2-0.2-0.2-0.4
			c0,0,0,0.1,0,0.1c0,0-0.3,0-0.4-0.1c-0.1-0.1-0.2,0.1-0.3,0.1c-0.1,0-0.1-0.1-0.1-0.2c0-0.2-0.4-0.1-0.4-0.1c0,0-0.1-0.1-0.1-0.2
			c0-0.2-0.3-0.4-0.1-0.6c0-0.2,0-0.2,0.2-0.3c0-0.3,0.1-0.5,0-0.7c0,0-0.1-0.2-0.1-0.2c0.2,0,0.2,0,0.2-0.3c-0.1,0-0.1,0-0.1,0.1
			c0,0.3-0.2,0.1-0.2,0.1c-0.1,0-0.6,0.3-0.6,0.1c0-0.2,0.3-0.2,0.3-0.3c0.1-0.1,0.2-0.3,0.3-0.4c-0.1-0.1,0-0.3,0-0.5l-0.3,0.3
			c0,0-0.1,0.2-0.2,0.4c-0.1,0.1-0.2,0.2-0.2,0.1l-0.3,0c0,0,0,0.1-0.1,0.1c-0.3-0.1-0.3,0-0.1-0.3c0.1-0.2,0.4-0.1,0.4-0.2
			c0,0,0.1-0.1,0.1-0.1c0,0,0.2-0.5,0.3-0.7c0.1-0.2,0.4-0.1,0.4-0.4c0-0.3,0.2-0.2,0.2-0.3c0.1-0.1,0.3-0.4,0.2-0.5
			c-0.1,0-0.1,0.1-0.1,0.2c-0.1,0.4-0.2,0.2-0.3,0.3c-0.4,0.3-0.4,0.6-0.4,0.6c0,0-0.4,0.2-0.5,0.2c-0.1,0-0.3,0.2-0.3,0.4l-0.3,0.2
			c0.1,0,0.1,0.1,0.1,0.1c-0.1,0.1-0.1,0.1-0.2,0.1c-0.1,0-0.1-0.1,0-0.2l-0.1,0c-0.2,0-0.1-0.1-0.1-0.3l0,0.1c0,0.1-0.1,0-0.2,0
			c0-0.1,0.2-0.3,0.2-0.1c0-0.1,0.3-0.1,0-0.5c0,0,0-0.1,0-0.2c-0.1-0.5-0.2-0.3-0.3-0.5c0-0.1,0-0.2,0-0.3c0.1-0.1,0.3,0,0.1-0.2
			c-0.1-0.1-0.1-0.1-0.1-0.3c0-0.1-0.4-0.2-0.5-0.3c-0.2,0-0.3,0-0.5,0c-0.1,0-0.4-0.1-0.6-0.2c0,0-0.3,0-0.6,0
			c-0.3-0.1-0.4,0-0.7,0c-0.3,0-0.3,0.1-0.5,0.1c-0.2,0.1-0.3,0.2-0.5,0.2c-0.4,0.1-0.6,0.3-1.1,0.2l-0.6-0.1l-0.3,0.2
			c-0.1,0-1,0.3-1.1,0.3c0,0-0.2,0.1-0.3,0.2c0,0-0.4,0.5-0.5,0.6c-0.1,0-0.1,0.1-0.1,0h-0.7c-0.1,0-0.1,0.1-0.1,0.1
			c0,0-0.4-0.1-0.5-0.1c-0.1,0-1.1,0-1.2,0c0,0-0.1,0.2-0.2,0.3c0,0-0.4,0-0.6,0.1c-0.2,0.1-0.3,0.3-0.5,0.4c-0.1,0-0.5,0.2-0.5,0.2
			c-0.4,0-0.4,0.1-0.9,0c-0.2-0.1-0.1-0.1-0.2-0.1c-0.1-0.1-0.1-0.1-0.2-0.2c-0.2-0.1,0-0.3-0.3-0.2c-0.3,0-0.2,0-0.1-0.5
			c0.1-0.6,0.2-0.3,0.3-0.3c0.1,0,0.4-0.2,0.5-0.2c0-0.1,0-0.3,0-0.4c0-0.1,0.2-0.2,0.3-0.5c0-0.1,0.1-0.3,0.1-0.5
			c0-0.2-0.3-1.1-0.3-1.2c0,0,0.2-0.4,0.2-0.4c0.1-0.3,0.1-0.3-0.1-0.5c-0.1-0.1,0-0.3,0-0.4c0-0.1-0.2-0.4-0.2-0.6
			c0-0.1,0-0.1,0.1-0.2c0.1-0.1-0.2-0.4-0.2-0.5c0-0.1-0.1-0.1,0-0.2c0.1,0,0.1-0.2,0.1-0.3L41,58.4c0,0,0,0,0,0s0,0,0,0.1
			c0,0.1-0.1,0.1-0.1,0.2c0,0,0,0.1-0.1,0.1c-0.1,0-0.1-0.5-0.1-0.6c0,0-0.1-0.1-0.1-0.2c0-0.2,0-0.1,0-0.2c0-0.2,0.1-0.1,0.2,0.2
			c0,0.1,0,0,0.1,0.2c0-0.1,0-0.3,0.1-0.5c0.1-0.1,0.3,0.2,0.3,0.2c0,0.8,0.2,0.6,0.1,0.3c0,0,0.1-0.3,0.1-0.3c0,0-0.1-0.3-0.2-0.4
			L41.1,57c0,0,0.1-0.4,0.2-0.5c0.1-0.1,0.1-0.1,0.2-0.2c0.1-0.1,0.1-0.3,0.1-0.4c0-0.4-0.1-0.1,0-0.7c0,0,0.4-0.4,0.4-0.4
			c0.1,0-0.1,0.4,0,0.5h0.1c0-0.1,0.2-0.4,0.2-0.5c0-0.1,0.1-0.1,0.2-0.2c0.3-0.1,0.5-0.4,0.8-0.4c0.2,0,0.2-0.2,0.4-0.3
			c0.3-0.2,0.2-0.2,0.3-0.2c0.1,0,0.3,0.1,0.3,0.1l0.7-0.2c0.1-0.2,0.1-0.1,0.3-0.1c0.5,0,0.3,0,0.5-0.3c0.1-0.1,0.1,0,0.1,0
			c0.1,0,0.2,0,0.3,0c0,0,0.3,0,0.4-0.1c0.1,0,0.3-0.2,0.4-0.3c0.2-0.1,0.3-0.2,0.6-0.3c0.2-0.1,0.3-0.2,0.2-0.2
			c-0.1-0.1,0-0.1,0-0.2c0.1-0.4,0.4-0.2,0.5-0.5c0-0.1,0.1-0.1,0-0.2c-0.1-0.1,0.1-0.3,0.1-0.4c0-0.2,0.1-0.2,0.2-0.3l0.3-0.3
			c0.1-0.1,0.1-0.2,0.2-0.2c0,0,0.1,0,0.1,0c0,0.2,0,0.2,0,0.4c0,0.4-0.1,0.2,0.1,0.5c0,0,0.1,0,0.1-0.2c0-0.3,0-0.2,0.1-0.1l0.1,0
			c0,0,0-0.1-0.1-0.1c-0.2,0-0.2-0.3-0.2-0.3c0.1-0.1,0.1-0.4,0.2-0.1c0.3-0.1,0.2,0.1,0.4,0.1c0.2,0,0-0.2,0.2-0.2
			c0-0.1,0-0.1-0.1-0.1c-0.1-0.1,0.1-0.4,0.1-0.5c0-0.1,0.3,0.1,0.3,0c0-0.2,0.1-0.4,0.2-0.3l0.1-0.1c-0.1-0.1-0.1-0.1-0.1-0.3
			c0-0.1,0.1-0.1,0.1-0.1l0.2-0.1c0,0,0-0.1,0-0.1c0,0,0.1-0.2,0.1,0c0,0.1,0.1,0.1,0.1,0.2c0.2-0.2,0-0.1,0-0.3
			c0-0.1,0.1-0.1,0.2,0c0.2-0.1,0.1-0.1,0.3,0c0-0.2,0.1-0.2,0.3-0.4c0.1-0.1,0.1,0.1,0.1,0.1c0,0,0,0,0,0c0,0,0.1,0,0.2,0
			c0.1,0.1,0.2,0.3,0.3,0.4c0.1,0.2,0.3,0.3,0.1,0.4c-0.1,0.1-0.1,0.2-0.1,0.3c0,0,0.1,0,0.1-0.1c0.1-0.3,0-0.4,0.3-0.3
			c0.2,0.1,0.3-0.1,0.4,0.1c0-0.1,0.1-0.1,0.2-0.1c0.1,0,0.1,0.2,0.2,0l0-0.1c0-0.2-0.1-0.2-0.1-0.3c0,0,0.1-0.2,0.1-0.3
			c0,0,0.1-0.1,0.1-0.2c0-0.1,0.1-0.3,0.1-0.3c0-0.1,0.2,0.1,0.2,0.1c0.1,0,0.1-0.1,0.2-0.2c0-0.1-0.1-0.1-0.1-0.2
			c0-0.2,0.1-0.1,0.2-0.2c0-0.1,0.1-0.2,0.2-0.1c0-0.1,0.1-0.2,0.3-0.2c0.2,0,0.1,0,0.1-0.1c0.1-0.3,0.2-0.2,0.4-0.1
			c0,0,0.2,0,0.3,0c0.2-0.1,0.3,0.1,0.5-0.1c0.1,0,0.2-0.3,0.2-0.3c0,0-0.1-0.2-0.1-0.2c-0.1-0.1-0.2,0-0.3,0
			c-0.1,0.1-0.2-0.1-0.2-0.2c0-0.1,0-0.1,0.1-0.1c0,0,0.3-0.1,0.3,0c0.1,0,0.2,0,0.2,0.1c0,0,0,0.1,0.1,0.1c0,0,0.1-0.1,0.1,0
			c0.2,0.2,0.1,0.2,0.3,0.3c0,0,0.2,0.1,0.3,0.1c0.1,0,0.1,0,0.4,0.2c0,0,0.1,0,0.1,0c0.1-0.1,0.3-0.1,0.4,0.1c0,0,0.2,0,0.2,0
			c0.1-0.1,0.2,0,0.2,0c0.1,0.1,0.1,0.1,0.3,0.1c0.1,0,0.1,0.2,0.1,0.2c0,0,0.2,0,0.2-0.1c0-0.1-0.1-0.1,0.1-0.3
			c0.1,0,0.1-0.1,0.1,0c0,0.1,0.2,0.2,0.2,0.2c0.1,0-0.2,0.3-0.3,0.3c-0.1,0-0.1,0-0.1,0.1c0,0.1,0,0.5-0.1,0.4c0,0-0.1,0-0.2,0
			c0,0-0.1,0.1-0.1,0.1c0,0.1,0,0.4,0,0.5c0,0-0.2,0.2-0.3,0.3c-0.1,0.1-0.2,0.2-0.2,0.2c0,0,0.1,0.2,0.2,0.3
			c0.2,0.1,0.3,0.3,0.5,0.5c0.1-0.2,0.3,0.1,0.5,0.3c0.1,0.1,0.3,0,0.3,0.1c0,0.1,0.2,0.3,0.2,0.4l0.2,0c0,0,0.4,0.2,0.4,0.2
			c0.1,0.1,0.1,0.3,0.3,0.4c0.1,0.1,0.1,0.2,0.3,0.3c0.1,0,0.4,0,0.5,0c0,0,0,0,0.1-0.1c0.1-0.2,0.4-0.5,0.4-0.7
			c0-0.3,0.3-0.4,0.3-0.8c0-0.3,0.3-0.5,0.2-0.8c-0.1-0.3,0.1-0.4,0-0.5c0,0,0-0.3,0.1-0.4c0-0.1,0.2-0.3,0.2-0.3
			c-0.1-0.2-0.1-0.1,0-0.2c0.1-0.1,0.1,0,0.1-0.2c0-0.1-0.1-0.2-0.1-0.2c0,0,0.4-0.5,0.4-0.7c0-0.1,0.1-0.2,0.1-0.3
			c0-0.1,0-0.1,0-0.1c0.1,0,0.1-0.1,0.2-0.2c0-0.1,0.1-0.1,0.2,0.1c0,0.1,0.1,0.2,0.1,0.2c0,0.2,0,0.3,0,0.6c0,0.2,0.3,0.1,0.2,0.3
			c0,0.1,0,0.1,0,0.2c0,0.1,0.2,0,0.1,0.2c0,0.3,0.2,0.2,0.1,0.4c-0.1,0.2,0.1,0.2,0,0.5c-0.1,0.2,0,0.4,0.1,0.7
			c0.1,0,0.2-0.1,0.3-0.1c0.1,0,0.3-0.3,0.3-0.2c0,0.3,0,0.2,0.2,0.4c0.2,0.3,0.2,0.2,0.1,0.4c0,0.3,0,0.4,0,0.9
			c0,0.2-0.1,0.2,0,0.4c0.1,0.1,0.1,0.2,0.1,0.3c0.1,0.3,0.1,0.4,0.1,0.7c0,0.1,0,0.2-0.1,0.3l0.2,0.1c0,0,0,0.5,0,0.5
			c0.1,0,0.2,0.2,0.3,0.2c0,0,0,0,0.4,0.1c0,0,0.1,0.2,0.1,0.3c0,0,0,0,0,0c0.1,0,0.2,0.2,0.2,0.3c0.3-0.1,0.2,0,0.5,0.3
			c0,0,0,0,0,0c0,0-0.1,0.1-0.1,0.2c0.2,0.2,0.3,0.1,0.3,0.4c0,0.1,0.1,0.2,0.1,0.3c0,0.2,0,0.4,0,0.6c0,0.1,0.1,0.1,0.1,0.1
			c0,0,0-0.1,0-0.2c0.1-0.1,0.1,0.1,0.3,0.3c0,0,0-0.1,0-0.2c0-0.1,0.1,0,0.1,0.1c0.1,0.3,0.1,0.3,0,0.5c-0.1,0.1-0.1,0.2-0.1,0.4
			c0.1,0,0.2,0,0.2,0c0.1,0,0,0.1,0,0.1c-0.1,0.2,0,0.2,0.1,0.4c0.1,0,0.2,0,0.3,0c0.1,0,0,0.4,0.1,0.5c0.1,0,0.2,0.1,0.2,0.2
			c0,0,0.1,0.2,0.1,0.3c0.1,0.1,0.1,0.1,0.2,0.2c0.1-0.2,0.1-0.2,0.2-0.3c0-0.2,0-0.2,0.1-0.3C69.6,57.1,69.6,57.4,69.6,57.4"/>
		<path fill-rule="evenodd" clip-rule="evenodd" fill="#FFFFFF" d="M59.5,68.3"/>
		<path fill-rule="evenodd" clip-rule="evenodd" fill="#FFFFFF" d="M61.4,50.5c0-0.1,0,0,0-0.1c0-0.1-0.2,0-0.3,0
			c0,0-0.3,0.2-0.3,0.2c0.2,0.2,0.1,0.1,0.4,0C61.3,50.5,61.4,50.5,61.4,50.5"/>
		<path fill-rule="evenodd" clip-rule="evenodd" fill="#FFFFFF" d="M61.2,50.8c0,0-0.2,0.1-0.2,0.1c0,0.1,0.2,0.2,0.2,0.1
			C61.2,51,61.2,51,61.2,50.8C61.2,50.8,61.2,50.8,61.2,50.8"/>
		<path fill-rule="evenodd" clip-rule="evenodd" fill="#FFFFFF" d="M59.6,48.2c0-0.1-0.1,0-0.1,0c0,0,0-0.2-0.1-0.2
			c-0.1,0-0.3,0.2-0.3,0.3c0,0,0,0.2,0,0.2c0,0,0.6,0.1,0.4-0.1c0,0,0,0-0.1,0C59.5,48.5,59.6,48.3,59.6,48.2"/>
		<path fill-rule="evenodd" clip-rule="evenodd" fill="#FFFFFF" d="M54.8,46.6c0.1,0,0-0.1,0.2,0c0.1,0,0.2,0,0.2,0
			c0.2,0.1,0.3,0.1,0.5,0c0.1-0.1,0.3-0.2,0.2-0.4c0,0,0-0.2-0.1-0.2c-0.2,0-0.3,0.2-0.5,0.2c0,0,0-0.2-0.2-0.2c0,0,0,0-0.1,0.2
			C54.8,46.4,54.7,46.4,54.8,46.6C54.8,46.6,54.8,46.6,54.8,46.6"/>
		<path fill-rule="evenodd" clip-rule="evenodd" fill="#FFFFFF" d="M41.1,57.2c0,0-0.3,0.4-0.3,0.4c0,0,0.1,0.1,0.2,0
			C41.2,57.5,41.1,57.2,41.1,57.2"/>
	</g>
</g>
</svg>
