<?xml version="1.0" encoding="UTF-8" standalone="no"?>
<svg width="282px" height="46px" viewBox="0 0 282 46" version="1.1" xmlns="http://www.w3.org/2000/svg" xmlns:xlink="http://www.w3.org/1999/xlink">
    <!-- Generator: Sketch 3.8.3 (29802) - http://www.bohemiancoding.com/sketch -->
    <title>finsec-ptx-logo</title>
    <desc>Created with Sketch.</desc>
    <defs></defs>
    <g id="Page-1" stroke="none" stroke-width="1" fill="none" fill-rule="evenodd">
        <g id="Artboard-1" transform="translate(-16.000000, -41.000000)">
            <g id="finsec-ptx-logo" transform="translate(16.000000, 41.000000)">
                <g id="Group">
                    <polygon id="Shape" fill="#FFFFFF" points="0.5 0.9 35.7 0.9 35.7 11.6 12.7 11.6 12.7 19 33.5 19 33.5 29.1 12.7 29.1 12.7 44.8 0.5 44.8"></polygon>
                    <polygon id="Shape" fill="#FFFFFF" points="41.5 0.9 53.8 0.9 53.8 44.9 41.5 44.9"></polygon>
                    <polygon id="Shape" fill="#FFFFFF" points="61.8 0.9 73.2 0.9 91.3 24.1 91.3 0.9 103.4 0.9 103.4 44.9 92.7 44.9 73.9 20.7 73.9 44.8 61.8 44.8"></polygon>
                    <path d="M107.8,38.3 L114.6,30.2 C118.9,33.7 123.8,35.5 128.9,35.5 C132.2,35.5 133.9,34.4 133.9,32.5 L133.9,32.4 C133.9,30.6 132.5,29.6 126.5,28.2 C117.1,26.1 109.9,23.4 109.9,14.4 L109.9,14.3 C109.9,6.1 116.4,0.2 126.9,0.2 C134.4,0.2 140.2,2.2 145,6 L138.9,14.6 C134.9,11.8 130.5,10.3 126.6,10.3 C123.6,10.3 122.2,11.6 122.2,13.1 L122.2,13.2 C122.2,15.2 123.7,16.1 129.8,17.5 C139.9,19.7 146.2,23 146.2,31.2 L146.2,31.3 C146.2,40.3 139.1,45.6 128.4,45.6 C120.6,45.6 113.2,43.2 107.8,38.3 L107.8,38.3 Z" id="Shape" fill="#CECECD"></path>
                    <polygon id="Shape" fill="#CECECD" points="152.1 0.9 187.5 0.9 187.5 11.3 164.2 11.3 164.2 18 185.3 18 185.3 27.6 164.2 27.6 164.2 34.6 187.8 34.6 187.8 45 152.1 45 152.1 0.9"></polygon>
                    <path d="M192.2,23 L192.2,22.9 C192.2,10.1 202,0 215.4,0 C224.4,0 230.2,3.8 234.1,9.2 L224.9,16.3 C222.4,13.2 219.5,11.1 215.3,11.1 C209.1,11.1 204.8,16.3 204.8,22.7 L204.8,22.8 C204.8,29.4 209.1,34.5 215.3,34.5 C219.9,34.5 222.6,32.4 225.2,29.2 L234.4,35.7 C230.3,41.4 224.7,45.6 214.9,45.6 C202.3,45.7 192.2,36.1 192.2,23 L192.2,23 Z" id="Shape" fill="#CECECD"></path>
                </g>
                <circle id="Oval" fill="#D1232A" cx="259.9" cy="22.8" r="22"></circle>
                <path d="M272.8,23.1 L276.9,17 L273,17 L270.8,20.5 L268.6,17 L245.1,17 L245.1,29.5 L248.6,29.5 L248.6,25.9 L250.3,25.9 C253.4,25.9 255.7,24.3 255.7,21.4 L255.7,21.4 C255.7,20.9 255.6,20.5 255.5,20 L258.4,20 L258.4,29.5 L261.9,29.5 L261.9,20 L266.7,20 L268.8,23.1 L264.5,29.5 L268.4,29.5 L270.8,25.7 L273.2,29.5 L277.2,29.5 L272.8,23.1 L272.8,23.1 Z M252.1,21.6 C252.1,22.6 251.3,23.2 250.1,23.2 L248.5,23.2 L248.5,19.9 L250.1,19.9 C251.4,19.9 252.1,20.5 252.1,21.6 L252.1,21.6 L252.1,21.6 Z" id="Shape" fill="#FFFFFF"></path>
            </g>
        </g>
    </g>
</svg>