<?xml version="1.0" encoding="utf-8"?>
<!-- Generator: Adobe Illustrator 17.1.0, SVG Export Plug-In . SVG Version: 6.00 Build 0)  -->
<!DOCTYPE svg PUBLIC "-//W3C//DTD SVG 1.1//EN" "http://www.w3.org/Graphics/SVG/1.1/DTD/svg11.dtd">
<svg version="1.1" id="Layer_1" xmlns="http://www.w3.org/2000/svg" xmlns:xlink="http://www.w3.org/1999/xlink" x="0px" y="0px"
	 viewBox="0 0 335 335" enable-background="new 0 0 335 335" xml:space="preserve">
<radialGradient id="SVGID_1_" cx="168.2722" cy="167.5" r="167.5" gradientUnits="userSpaceOnUse">
	<stop  offset="8.956473e-02" style="stop-color:#184A67"/>
	<stop  offset="0.8634" style="stop-color:#0F1D3C"/>
</radialGradient>
<circle fill="url(#SVGID_1_)" cx="168.3" cy="167.5" r="167.5"/>
<path fill="#D2232A" d="M169.7,262.1c-52.6-0.5-94.9-41.8-94.9-94.4c-0.1-52.8,42-94.4,94-94.7c52.7-0.3,94.6,41.8,95,93.7
	C264.2,219.5,221.6,261.4,169.7,262.1z M163.6,166.7c-0.2,1.7-0.7,2.9-0.4,3.8c0.9,2.5,2.1,4.9,3.2,7.4c0.7,1.6,2.2,3.2,2,4.7
	c-0.6,4.7,1.7,7.1,5.7,8.6c0.2,0.1,0.3,0.5,0.3,0.5c-0.8,1.1-1.6,2-2.2,2.8c3.7,5.4,9.5,1.9,14,4.4c4,2.2,9.7-0.4,14.5,1.2
	c-0.3,1.9-0.9,3-2.7,2.2c-0.7-0.3-1.6-1.3-1.8-1.1c-3,2.7-6.3,0.7-9.3,0.5c-4.6-0.3-9.5-0.4-13.5-2.3c-4.9-2.3-9.5-5.9-13.2-9.9
	c-2.7-2.9-3.7-7.3-5.5-11.3c4.9-2.1,5.7,3.1,9.3,4.6c-1.9-3.7-3.8-6.5-4.7-9.7c-1-3.5-1-7.2-1.4-11.1c-2.6,0.4-3.9-0.5-4.5-3.1
	c-0.6-2.3-1.9-4.5-2.7-6.2c-5.9-1-8.5,3-11.8,5.3c-3.4,2.3-5.7,5.7-5.7,10.4c2.3,4.6,2.3,4.6-0.4,6.6c-2.1-0.5-0.7-5.1-4.4-4
	c-0.2,0.1-1.2-1.4-1.4-2.3c-0.6-2.2-0.9-4.5-1.4-6.8c-1.1-4.8-1.4-9.5-3.8-14.2c-2.3-4.5-5.2-5.5-9.5-5.8c-0.3,2.1-0.6,4-0.9,6.1
	c-2.8,1.8-5.6,3.5-8.2,5.4c-2.6,1.8-6.3,1.6-8.8,4.6c2.2,0.6,3.8,1,5.7,1.5c-0.3,1.4-0.3,2.6-0.9,3.5c-2,3.5-3.7,7.3-6.2,10.4
	c-3.3,4.3-4.7,8.6-3.3,13.9c1,3.9,2.4,8,2.2,11.9c-0.3,6.7,2.5,12.4,4.1,18.5c0.3,1.2,1.3,2.3,2.1,3.4c6.9,9.5,15.8,17,25.7,23
	c8.1,4.9,17,9.3,26.4,9.5c11.5,0.3,22.9,2.1,34.6,0.6c10.1-1.3,19-4.5,27.8-9.2c4.6-2.4,8.3-6,12.2-9.4c7.2-6.2,14.2-12.5,19.3-20.5
	c11.8-18.5,15.8-38.6,12.8-60.3c-2.8-20.5-12.2-37.6-26.8-52c-5.3-5.2-11.4-9.5-19.1-10.8c0,2.6,0,5,0,7.4c3.9,4.8,3.9,4.9,3.3,10.5
	c-2.9-4-5.3-7.5-7.3-10.4c-1.2,0.6-2.3,1.2-3.5,1.6c-2.3,0.8-5,1.1-4.5,4.9c6.6,1.2,9.6,5.7,10.7,12.1c1.5-0.5,2.6-0.9,4.7-1.5
	c-1.4,2.6-2.3,4.2-3,5.5c0.6,3.1,1.2,6,1.7,8.6c-3.6,2.7-6.6,5-9.6,7.2c-2-3.5-1.8-4.5,1.3-6.6c1.8-1.3,3.4-2.7,5.2-4.2
	c-2.8-5-1.1-10.8-5.4-14.7c0,0.9-0.1,1.7,0.1,2.4c1.2,3.5,0.5,5.8-3.1,7.5c-1.3,0.6-2.1,2.5-2.9,3.7c3.2,6,3.2,6-0.4,7.7
	c-1.6-2.1-3.2-4.1-5.1-6.5c-1,2.5-1.7,4.4-2.4,6.2c5.7,10.5,3,15.7-11.4,21.5c-0.4,1.2,0.7,3.7-2.3,3.6c-0.5-1.3-1-2.6-1.6-4
	c-2.7,1.2-2.8,3-2,5c0.3,0.7,1,1.2,1.5,1.8c3.8,4.6,3.7,6.8-0.6,10.7c-0.9,0.9-2.2,1.4-3.4,2.1C168.7,171.6,166.4,169.4,163.6,166.7
	z M203.2,86.8c-3.6-1.9-6.5-4-9.7-4.9c-7.6-2.2-15.4-3.6-23.4-3.2c-3.1,0.2-6.1,1.1-9.2,1c-8.5-0.2-16.4,1.8-24.2,4.8
	c-1,0.4-1.9,1-3.5,1.8c3.5-0.3,6.2-0.5,9.3-0.8c-0.7,1.8-1,2.8-1.4,3.9c1.2,0.1,2.2,0.2,3.1,0.2c0.9,0,1.9,0,2.8,0
	c4.1-3.4,6.7-4.2,11.2-3.4c-2.3,1.3-5.5,0.8-7.2,3.5c5.7-2.5,13.2,1.1,17.8-5.6c5.1,3.3,10,6.4,16.4,5.6c-0.8-0.9-1.5-1.6-2.1-2.2
	C189.7,89.4,196,91.5,203.2,86.8z M98.6,118.7c1.1-0.8,1.7-1.3,2.7-2.1c-1.3-0.7-2.1-1.2-2.8-1.6c-3.2,4.4-3.2,4.4,0,9.5
	c3-1.4,3-1.4,3.6-4.6C101,119.6,99.9,119.2,98.6,118.7z"/>
<path fill="#FFFFFF" d="M202.8,229.7c-6.9,0.4-13.3,5.4-20.4,4.2c-0.6-3.4-0.9-6.2-1.6-8.8c-0.7-2.8,0-4.9,2.4-6.4
	c0.7-0.4,1.2-1.1,1.9-1.3c6.7-1.4,11.2-6.3,16.2-10.5c1.2,0.4,2.2,0.7,3.4,1c1-1.5,1.9-3,3-4.8c2.4,0,5,0,8.2,0
	c-0.5,1.6-1,3-1.5,4.7c1,0.6,2,1.2,3.8,2.3c1.4-3.2,2.7-6,4.3-9.5c1.5,3.4,3.5,5.9,3.3,9.4c-0.1,1.4,0.8,3,1.6,4.3
	c1.9,3,1.2,5.9-0.2,8.8c-2.5,5.1-6.4,8.6-11.2,11.4c-2.4,1.4-4.9,1.9-7.4-0.5C207,232.2,204.9,231.1,202.8,229.7z"/>
<path fill="#D2232A" d="M233.8,186.3c2.3,3.6,2.3,3.6-3.5,8.3c0.6,1.2,1.2,2.4,1.9,3.6c-1,1.4-1.1,1.4-6.5-1
	c-2.1,2.9-4.8,1.9-7.8,0.3c0.4-2-0.2-3.6-2.6-4.5c-4.2-1.7-4.1-1.9-7-6.5c2.5-1,4.7-1.3,6.3,1.6c4.4-1.8,8.4-0.8,12.4,1.6
	C230.6,192,232.1,191.3,233.8,186.3z"/>
<path fill="#D2232A" d="M188.5,175c1.6,1.3,2.7,2.2,3.8,3.1c-1.4,5.1-0.6,10.7-4.8,14.9c-7.4,1.4-9.1,0.4-11.6-6.9
	C179.3,181.6,186.5,181.6,188.5,175z"/>
<path fill="#D2232A" d="M195.9,156.5c0.6,3.2,0.9,4.9,1.1,6.4c6.1,5.2,7.4,9.1,4.9,14.9c-1.6-0.8-3.1-1.7-5-2.6
	c0.7-2.4,0.1-4.9-1.9-6.8c-2.6-2.5-2.3-5.6-1.9-8.6C193.2,158.9,194.3,158.2,195.9,156.5z"/>
<path fill="#D2232A" d="M100.3,213.2c-3.6-0.7-3.9-3.9-4.7-6.4c-1.1-3.6-2.5-7.4,1.7-10.2C99.4,199.4,100.7,206.4,100.3,213.2z"/>
<path fill="#D2232A" d="M192.3,195.3c-2-7.8,0.3-10.7,8.3-9.6c-2,0.6-3.9,1.1-5.9,1.7c0,0.2,0,0.3,0.1,0.5c1,0,2,0,3.6,0
	c-0.3,1-0.8,1.7-0.8,2.4c0.1,1.2,0.8,2.5,0.7,3.6c-0.1,0.6-1.5,1.3-2.4,1.5C194.9,195.5,193.8,195.3,192.3,195.3z"/>
<circle fill="none" stroke="#D2232A" stroke-width="10" stroke-miterlimit="10" cx="169.6" cy="168" r="91"/>
<path fill="none" stroke="#FFFFFF" stroke-width="2" stroke-linecap="round" stroke-miterlimit="10" stroke-dasharray="3,5" d="
	M175.9,223c-6-0.2-55.4-11.5-107.3-53.8c-49.2-40.1-17-69.5,21.5-53.8"/>
</svg>
